<svg xmlns="http://www.w3.org/2000/svg" xmlns:xlink="http://www.w3.org/1999/xlink" width="500" zoomAndPan="magnify" viewBox="0 0 375 374.999991" height="500" preserveAspectRatio="xMidYMid meet" version="1.0"><defs><g/><clipPath id="a5c303067d"><path d="M 5.824219 6.292969 L 368.238281 6.292969 L 368.238281 368.707031 L 5.824219 368.707031 Z M 5.824219 6.292969 " clip-rule="nonzero"/></clipPath><clipPath id="b1d5f5abe9"><path d="M 187.03125 6.292969 C 86.953125 6.292969 5.824219 87.421875 5.824219 187.5 C 5.824219 287.578125 86.953125 368.707031 187.03125 368.707031 C 287.109375 368.707031 368.238281 287.578125 368.238281 187.5 C 368.238281 87.421875 287.109375 6.292969 187.03125 6.292969 Z M 187.03125 6.292969 " clip-rule="nonzero"/></clipPath><clipPath id="a1a7ce8dec"><path d="M 34.335938 42.960938 L 323.085938 42.960938 L 323.085938 331.710938 L 34.335938 331.710938 Z M 34.335938 42.960938 " clip-rule="nonzero"/></clipPath><clipPath id="fc897e6421"><path d="M 178.875 42.960938 C 99.050781 42.960938 34.335938 107.671875 34.335938 187.5 C 34.335938 267.324219 99.050781 332.039062 178.875 332.039062 C 258.703125 332.039062 323.414062 267.324219 323.414062 187.5 C 323.414062 107.671875 258.703125 42.960938 178.875 42.960938 Z M 178.875 42.960938 " clip-rule="nonzero"/></clipPath></defs><g clip-path="url(#a5c303067d)"><g clip-path="url(#b1d5f5abe9)"><path fill="#2e5077" d="M 5.824219 6.292969 L 368.238281 6.292969 L 368.238281 368.707031 L 5.824219 368.707031 Z M 5.824219 6.292969 " fill-opacity="1" fill-rule="nonzero"/></g></g><g clip-path="url(#a1a7ce8dec)"><g clip-path="url(#fc897e6421)"><path stroke-linecap="butt" transform="matrix(0.75, 0, 0, 0.75, 34.337786, 42.959059)" fill="none" stroke-linejoin="miter" d="M 192.716299 0.00250496 C 86.284 0.00250496 -0.00246403 86.283761 -0.00246403 192.721268 C -0.00246403 299.153566 86.284 385.44003 192.716299 385.44003 C 299.153806 385.44003 385.435061 299.153566 385.435061 192.721268 C 385.435061 86.283761 299.153806 0.00250496 192.716299 0.00250496 Z M 192.716299 0.00250496 " stroke="#ffffff" stroke-width="20" stroke-opacity="1" stroke-miterlimit="4"/></g></g><path fill="#2e5077" d="M 47.71875 107.609375 C 47.042969 107.144531 46.417969 106.621094 45.84375 106.035156 C 45.269531 105.453125 44.753906 104.816406 44.300781 104.136719 C 43.847656 103.453125 43.460938 102.730469 43.148438 101.976562 C 42.832031 101.21875 42.59375 100.4375 42.425781 99.636719 C 42.261719 98.832031 42.175781 98.019531 42.164062 97.199219 C 42.15625 96.378906 42.226562 95.566406 42.371094 94.761719 C 42.519531 93.953125 42.742188 93.167969 43.039062 92.40625 C 43.335938 91.640625 43.703125 90.914062 44.140625 90.21875 C 46.089844 87.601562 48.113281 85.039062 50.214844 82.539062 C 52.3125 80.039062 54.480469 77.601562 56.722656 75.226562 C 58.960938 72.851562 61.269531 70.546875 63.644531 68.304688 C 66.019531 66.066406 68.457031 63.898438 70.960938 61.800781 C 73.460938 59.703125 76.019531 57.679688 78.640625 55.730469 C 81.257812 53.78125 83.933594 51.910156 86.664062 50.121094 C 89.390625 48.328125 92.167969 46.617188 94.996094 44.984375 C 97.824219 43.355469 100.699219 41.808594 103.617188 40.34375 C 106.535156 38.882812 109.496094 37.507812 112.492188 36.214844 C 115.492188 34.925781 118.527344 33.722656 121.59375 32.609375 C 124.664062 31.496094 127.761719 30.472656 130.890625 29.539062 C 134.019531 28.609375 137.171875 27.765625 140.347656 27.019531 C 143.527344 26.269531 146.722656 25.613281 149.9375 25.050781 C 153.15625 24.488281 156.382812 24.019531 159.628906 23.648438 C 162.871094 23.273438 166.121094 22.992188 169.382812 22.808594 C 172.640625 22.625 175.902344 22.535156 179.167969 22.539062 C 182.429688 22.546875 185.691406 22.648438 188.953125 22.84375 C 192.210938 23.039062 195.460938 23.328125 198.703125 23.714844 C 201.945312 24.101562 205.171875 24.578125 208.386719 25.152344 C 211.597656 25.726562 214.792969 26.394531 217.96875 27.152344 C 221.144531 27.914062 224.292969 28.765625 227.417969 29.710938 C 230.542969 30.652344 233.636719 31.6875 236.703125 32.8125 C 239.769531 33.933594 242.796875 35.148438 245.792969 36.449219 C 248.785156 37.75 251.738281 39.136719 254.652344 40.609375 C 257.566406 42.082031 260.433594 43.636719 263.257812 45.277344 C 266.078125 46.917969 268.851562 48.640625 271.574219 50.441406 C 274.296875 52.242188 276.964844 54.125 279.578125 56.082031 C 282.1875 58.039062 284.742188 60.070312 287.238281 62.175781 C 289.730469 64.28125 292.160156 66.460938 294.527344 68.707031 C 296.894531 70.957031 299.195312 73.269531 301.425781 75.652344 C 303.660156 78.035156 305.820312 80.480469 307.910156 82.988281 C 310 85.496094 312.015625 88.0625 313.953125 90.691406 C 314.390625 91.382812 314.753906 92.113281 315.050781 92.878906 C 315.34375 93.644531 315.566406 94.429688 315.710938 95.238281 C 315.851562 96.042969 315.917969 96.859375 315.90625 97.679688 C 315.894531 98.496094 315.804688 99.308594 315.636719 100.109375 C 315.46875 100.914062 315.226562 101.691406 314.90625 102.449219 C 314.589844 103.203125 314.203125 103.921875 313.746094 104.605469 C 313.292969 105.285156 312.777344 105.917969 312.199219 106.5 C 311.621094 107.082031 310.992188 107.605469 310.316406 108.066406 L 288.625 121.667969 C 287.914062 122.167969 287.160156 122.59375 286.363281 122.941406 C 285.566406 123.289062 284.742188 123.554688 283.890625 123.734375 C 283.042969 123.914062 282.179688 124.007812 281.3125 124.011719 C 280.441406 124.015625 279.582031 123.933594 278.726562 123.761719 C 277.875 123.589844 277.046875 123.335938 276.246094 122.996094 C 275.445312 122.65625 274.6875 122.242188 273.972656 121.746094 C 273.253906 121.253906 272.597656 120.691406 271.996094 120.0625 C 271.394531 119.4375 270.863281 118.753906 270.398438 118.015625 C 269.042969 116.300781 267.636719 114.625 266.183594 112.988281 C 264.730469 111.351562 263.234375 109.757812 261.691406 108.207031 C 260.148438 106.65625 258.566406 105.148438 256.9375 103.683594 C 255.3125 102.222656 253.644531 100.804688 251.9375 99.4375 C 250.234375 98.066406 248.488281 96.746094 246.707031 95.476562 C 244.929688 94.203125 243.113281 92.984375 241.265625 91.8125 C 239.414062 90.644531 237.535156 89.527344 235.621094 88.464844 C 233.710938 87.402344 231.769531 86.390625 229.800781 85.4375 C 227.832031 84.484375 225.839844 83.585938 223.820312 82.742188 C 221.800781 81.902344 219.757812 81.117188 217.695312 80.386719 C 215.632812 79.660156 213.550781 78.992188 211.449219 78.382812 C 209.347656 77.769531 207.230469 77.21875 205.097656 76.726562 C 202.96875 76.238281 200.824219 75.804688 198.667969 75.433594 C 196.511719 75.0625 194.347656 74.753906 192.171875 74.503906 C 190 74.253906 187.820312 74.066406 185.636719 73.941406 C 183.453125 73.8125 181.265625 73.75 179.078125 73.746094 C 176.890625 73.742188 174.703125 73.796875 172.519531 73.917969 C 170.335938 74.035156 168.15625 74.21875 165.980469 74.457031 C 163.804688 74.699219 161.640625 75.003906 159.480469 75.367188 C 157.324219 75.730469 155.179688 76.152344 153.046875 76.636719 C 150.910156 77.121094 148.792969 77.664062 146.691406 78.269531 C 144.585938 78.871094 142.503906 79.53125 140.4375 80.253906 C 138.371094 80.972656 136.328125 81.75 134.304688 82.585938 C 132.28125 83.421875 130.285156 84.3125 128.3125 85.261719 C 126.339844 86.207031 124.398438 87.210938 122.480469 88.269531 C 120.566406 89.324219 118.683594 90.433594 116.828125 91.597656 C 114.976562 92.761719 113.15625 93.972656 111.371094 95.238281 C 109.585938 96.503906 107.835938 97.816406 106.125 99.179688 C 104.414062 100.542969 102.742188 101.957031 101.113281 103.414062 C 99.480469 104.871094 97.890625 106.371094 96.34375 107.917969 C 94.796875 109.464844 93.292969 111.054688 91.835938 112.683594 C 90.375 114.316406 88.964844 115.988281 87.601562 117.699219 C 87.136719 118.433594 86.601562 119.113281 86 119.738281 C 85.394531 120.367188 84.734375 120.925781 84.015625 121.417969 C 83.296875 121.90625 82.539062 122.320312 81.738281 122.65625 C 80.933594 122.996094 80.105469 123.246094 79.253906 123.414062 C 78.398438 123.582031 77.539062 123.664062 76.667969 123.65625 C 75.800781 123.648438 74.9375 123.550781 74.089844 123.367188 C 73.238281 123.183594 72.414062 122.917969 71.621094 122.566406 C 70.824219 122.214844 70.070312 121.789062 69.363281 121.285156 Z M 47.71875 107.609375 " fill-opacity="1" fill-rule="nonzero"/><g fill="#ffffff" fill-opacity="1"><g transform="translate(72.206706, 109.999816)"><g><path d="M 9.453125 -10.953125 L 7.734375 -8.96875 L -4.25 -10.34375 L -3.828125 -7.15625 L 1.90625 -2.203125 L 0.5 -0.578125 L -14.9375 -13.90625 L -13.53125 -15.53125 L -6.015625 -9.046875 L -7.828125 -22.140625 L -5.984375 -24.28125 L -4.46875 -12.390625 Z M 9.453125 -10.953125 "/></g></g></g><g fill="#ffffff" fill-opacity="1"><g transform="translate(82.858638, 97.553977)"><g><path d="M 10.21875 -9.265625 L 8.625 -7.8125 L 2.28125 -14.8125 L -4.1875 -8.953125 L 2.15625 -1.953125 L 0.5625 -0.515625 L -13.125 -15.625 L -11.53125 -17.0625 L -5.40625 -10.296875 L 1.0625 -16.15625 L -5.0625 -22.921875 L -3.46875 -24.375 Z M 10.21875 -9.265625 "/></g></g></g><g fill="#ffffff" fill-opacity="1"><g transform="translate(94.953659, 86.505317)"><g/></g></g><g fill="#ffffff" fill-opacity="1"><g transform="translate(108.309941, 77.019962)"><g><path d="M 13.71875 -7.328125 L 11.6875 -6.25 L 7.234375 -10.484375 L 0.125 -6.6875 L 1.21875 -0.640625 L -0.8125 0.4375 L -4.4375 -20.75 L -1.875 -22.109375 Z M 5.8125 -11.859375 L -2.15625 -19.515625 L -0.21875 -8.640625 Z M 5.8125 -11.859375 "/></g></g></g><g fill="#ffffff" fill-opacity="1"><g transform="translate(122.726682, 69.240492)"><g><path d="M 10.671875 -15 C 11.171875 -13.695312 11.515625 -12.40625 11.703125 -11.125 C 11.890625 -9.851562 11.863281 -8.648438 11.625 -7.515625 C 11.382812 -6.378906 10.90625 -5.363281 10.1875 -4.46875 C 9.46875 -3.582031 8.453125 -2.882812 7.140625 -2.375 C 5.804688 -1.863281 4.570312 -1.703125 3.4375 -1.890625 C 2.3125 -2.078125 1.28125 -2.507812 0.34375 -3.1875 C -0.59375 -3.875 -1.421875 -4.757812 -2.140625 -5.84375 C -2.859375 -6.925781 -3.460938 -8.101562 -3.953125 -9.375 C -4.441406 -10.65625 -4.785156 -11.9375 -4.984375 -13.21875 C -5.179688 -14.5 -5.160156 -15.707031 -4.921875 -16.84375 C -4.691406 -17.988281 -4.21875 -19.015625 -3.5 -19.921875 C -2.789062 -20.828125 -1.769531 -21.535156 -0.4375 -22.046875 C 0.738281 -22.503906 1.820312 -22.679688 2.8125 -22.578125 C 3.800781 -22.484375 4.660156 -22.085938 5.390625 -21.390625 L 4.53125 -23.609375 L 6.25 -24.265625 L 8.65625 -18.015625 L 6.9375 -17.359375 C 6.675781 -18.046875 6.300781 -18.640625 5.8125 -19.140625 C 5.332031 -19.640625 4.789062 -20.019531 4.1875 -20.28125 C 3.582031 -20.539062 2.929688 -20.679688 2.234375 -20.703125 C 1.546875 -20.722656 0.875 -20.601562 0.21875 -20.34375 C -0.8125 -19.945312 -1.570312 -19.375 -2.0625 -18.625 C -2.550781 -17.882812 -2.847656 -17.039062 -2.953125 -16.09375 C -3.054688 -15.144531 -3.007812 -14.15625 -2.8125 -13.125 C -2.613281 -12.101562 -2.328125 -11.109375 -1.953125 -10.140625 C -1.585938 -9.191406 -1.128906 -8.265625 -0.578125 -7.359375 C -0.0351562 -6.460938 0.582031 -5.707031 1.28125 -5.09375 C 1.988281 -4.476562 2.773438 -4.054688 3.640625 -3.828125 C 4.503906 -3.597656 5.453125 -3.679688 6.484375 -4.078125 C 8.015625 -4.671875 8.992188 -5.726562 9.421875 -7.25 C 9.847656 -8.769531 9.734375 -10.644531 9.078125 -12.875 L 4.859375 -11.25 L 4.203125 -12.953125 L 10.53125 -15.390625 Z M 10.671875 -15 "/></g></g></g><g fill="#ffffff" fill-opacity="1"><g transform="translate(137.987132, 63.283887)"><g><path d="M 11.296875 -2.828125 L 2.8125 -0.703125 L 2.375 -2.46875 L 5.578125 -3.265625 L 1.5 -19.5 L -1.703125 -18.703125 L -2.140625 -20.484375 L 6.34375 -22.609375 L 6.78125 -20.828125 L 3.59375 -20.03125 L 7.671875 -3.796875 L 10.859375 -4.59375 Z M 11.296875 -2.828125 "/></g></g></g><g fill="#ffffff" fill-opacity="1"><g transform="translate(153.861869, 59.239692)"><g><path d="M 13.6875 -1.6875 L 0.765625 -0.09375 L -1.734375 -20.328125 L 0.390625 -20.59375 L 2.671875 -2.171875 L 13.46875 -3.5 Z M 13.6875 -1.6875 "/></g></g></g><g fill="#ffffff" fill-opacity="1"><g transform="translate(170.141614, 57.168713)"><g><path d="M 13.796875 0 L 0.765625 0 L 0.765625 -20.390625 L 13.796875 -20.390625 L 13.796875 -18.5625 L 2.90625 -18.5625 L 2.90625 -11.265625 L 10.9375 -11.265625 L 10.9375 -9.4375 L 2.90625 -9.4375 L 2.90625 -1.828125 L 13.796875 -1.828125 Z M 13.796875 0 "/></g></g></g><g fill="#ffffff" fill-opacity="1"><g transform="translate(186.49383, 57.102083)"><g/></g></g><g fill="#ffffff" fill-opacity="1"><g transform="translate(202.760487, 59.040806)"><g><path d="M 17.375 -6.109375 C 17.03125 -4.765625 16.566406 -3.515625 15.984375 -2.359375 C 15.398438 -1.210938 14.679688 -0.242188 13.828125 0.546875 C 12.984375 1.335938 12.007812 1.890625 10.90625 2.203125 C 9.800781 2.523438 8.566406 2.515625 7.203125 2.171875 C 5.816406 1.828125 4.710938 1.25 3.890625 0.4375 C 3.078125 -0.375 2.484375 -1.328125 2.109375 -2.421875 C 1.734375 -3.515625 1.566406 -4.707031 1.609375 -6 C 1.648438 -7.300781 1.835938 -8.613281 2.171875 -9.9375 C 2.503906 -11.269531 2.957031 -12.515625 3.53125 -13.671875 C 4.101562 -14.835938 4.8125 -15.820312 5.65625 -16.625 C 6.507812 -17.425781 7.488281 -17.988281 8.59375 -18.3125 C 9.695312 -18.632812 10.941406 -18.625 12.328125 -18.28125 C 13.546875 -17.976562 14.535156 -17.5 15.296875 -16.84375 C 16.054688 -16.195312 16.535156 -15.375 16.734375 -14.375 L 17.3125 -16.6875 L 19.078125 -16.25 L 17.453125 -9.765625 L 15.6875 -10.203125 C 15.863281 -10.921875 15.894531 -11.625 15.78125 -12.3125 C 15.664062 -13 15.4375 -13.617188 15.09375 -14.171875 C 14.757812 -14.734375 14.3125 -15.222656 13.75 -15.640625 C 13.195312 -16.054688 12.578125 -16.347656 11.890625 -16.515625 C 10.816406 -16.785156 9.863281 -16.753906 9.03125 -16.421875 C 8.207031 -16.097656 7.476562 -15.578125 6.84375 -14.859375 C 6.207031 -14.148438 5.675781 -13.316406 5.25 -12.359375 C 4.820312 -11.410156 4.484375 -10.429688 4.234375 -9.421875 C 3.984375 -8.429688 3.820312 -7.410156 3.75 -6.359375 C 3.675781 -5.304688 3.75 -4.328125 3.96875 -3.421875 C 4.195312 -2.515625 4.597656 -1.71875 5.171875 -1.03125 C 5.753906 -0.34375 6.582031 0.132812 7.65625 0.40625 C 9.25 0.800781 10.65625 0.5 11.875 -0.5 C 13.101562 -1.507812 14.085938 -3.101562 14.828125 -5.28125 L 10.453125 -6.390625 L 10.890625 -8.171875 L 17.46875 -6.515625 Z M 17.375 -6.109375 "/></g></g></g><g fill="#ffffff" fill-opacity="1"><g transform="translate(218.667583, 62.955733)"><g><path d="M 13.765625 5.3125 L 11.21875 4.328125 L 8.8125 -5.96875 L 5.859375 -7.109375 L 2.71875 1.046875 L 0.71875 0.28125 L 8.0625 -18.75 L 14.328125 -16.34375 C 16.421875 -15.53125 17.863281 -14.445312 18.65625 -13.09375 C 19.445312 -11.738281 19.492188 -10.160156 18.796875 -8.359375 C 18.492188 -7.554688 18.078125 -6.890625 17.546875 -6.359375 C 17.023438 -5.835938 16.429688 -5.445312 15.765625 -5.1875 C 15.109375 -4.925781 14.390625 -4.789062 13.609375 -4.78125 C 12.828125 -4.769531 12.023438 -4.890625 11.203125 -5.140625 Z M 16.71875 -9.15625 C 17.21875 -10.445312 17.179688 -11.546875 16.609375 -12.453125 C 16.035156 -13.359375 15.050781 -14.082031 13.65625 -14.625 L 9.390625 -16.265625 L 6.515625 -8.8125 L 10.78125 -7.171875 C 12.175781 -6.628906 13.390625 -6.492188 14.421875 -6.765625 C 15.453125 -7.046875 16.21875 -7.84375 16.71875 -9.15625 Z M 16.71875 -9.15625 "/></g></g></g><g fill="#ffffff" fill-opacity="1"><g transform="translate(233.975981, 68.78801)"><g><path d="M 18.125 -1.84375 C 17.476562 -0.644531 16.726562 0.445312 15.875 1.4375 C 15.03125 2.425781 14.109375 3.203125 13.109375 3.765625 C 12.109375 4.335938 11.03125 4.644531 9.875 4.6875 C 8.726562 4.738281 7.523438 4.425781 6.265625 3.75 C 5.003906 3.082031 4.070312 2.253906 3.46875 1.265625 C 2.875 0.285156 2.53125 -0.773438 2.4375 -1.921875 C 2.351562 -3.078125 2.488281 -4.28125 2.84375 -5.53125 C 3.195312 -6.789062 3.695312 -8.019531 4.34375 -9.21875 C 4.988281 -10.425781 5.734375 -11.523438 6.578125 -12.515625 C 7.421875 -13.503906 8.347656 -14.28125 9.359375 -14.84375 C 10.367188 -15.414062 11.453125 -15.722656 12.609375 -15.765625 C 13.765625 -15.816406 14.960938 -15.507812 16.203125 -14.84375 C 17.441406 -14.175781 18.359375 -13.347656 18.953125 -12.359375 C 19.554688 -11.378906 19.898438 -10.3125 19.984375 -9.15625 C 20.066406 -8.007812 19.9375 -6.804688 19.59375 -5.546875 C 19.257812 -4.285156 18.769531 -3.050781 18.125 -1.84375 Z M 16.21875 -2.859375 C 16.851562 -4.046875 17.3125 -5.171875 17.59375 -6.234375 C 17.875 -7.304688 17.984375 -8.289062 17.921875 -9.1875 C 17.859375 -10.09375 17.609375 -10.882812 17.171875 -11.5625 C 16.742188 -12.25 16.132812 -12.804688 15.34375 -13.234375 C 14.363281 -13.753906 13.429688 -13.957031 12.546875 -13.84375 C 11.660156 -13.726562 10.828125 -13.398438 10.046875 -12.859375 C 9.265625 -12.316406 8.550781 -11.628906 7.90625 -10.796875 C 7.269531 -9.972656 6.710938 -9.109375 6.234375 -8.203125 C 5.753906 -7.304688 5.34375 -6.359375 5 -5.359375 C 4.664062 -4.359375 4.492188 -3.390625 4.484375 -2.453125 C 4.484375 -1.523438 4.675781 -0.660156 5.0625 0.140625 C 5.457031 0.953125 6.144531 1.617188 7.125 2.140625 C 8.09375 2.660156 9.023438 2.859375 9.921875 2.734375 C 10.816406 2.617188 11.648438 2.300781 12.421875 1.78125 C 13.203125 1.257812 13.910156 0.582031 14.546875 -0.25 C 15.179688 -1.09375 15.738281 -1.960938 16.21875 -2.859375 Z M 16.21875 -2.859375 "/></g></g></g><g fill="#ffffff" fill-opacity="1"><g transform="translate(248.455538, 76.449942)"><g><path d="M 24.453125 -7.71875 L 9.703125 6.84375 L 7.640625 5.375 L 11.671875 -3.953125 L 4.21875 2.96875 L 2.171875 1.53125 L 10.921875 -17.234375 L 12.78125 -15.9375 L 5.46875 -0.5625 L 13.46875 -8.328125 L 15.1875 -7.125 L 10.5625 3.015625 L 22.5625 -9.046875 Z M 24.453125 -7.71875 "/></g></g></g><g fill="#ffffff" fill-opacity="1"><g transform="translate(261.88854, 85.826352)"><g><path d="M 19.859375 -0.21875 L 18.5 -1.453125 L 21.90625 -5.203125 L 18.65625 -8.140625 L 7.421875 4.25 L 9.859375 6.453125 L 8.625 7.8125 L 2.15625 1.953125 L 3.390625 0.59375 L 5.828125 2.8125 L 17.0625 -9.578125 L 13.828125 -12.515625 L 10.421875 -8.765625 L 9.0625 -10 L 13.6875 -15.109375 L 24.484375 -5.328125 Z M 19.859375 -0.21875 "/></g></g></g><g fill="#ffffff" fill-opacity="1"><g transform="translate(274.073042, 96.776247)"><g><path d="M 9.015625 10.453125 L 7.609375 8.8125 L 14.75 2.640625 L 9.046875 -3.96875 L 1.90625 2.203125 L 0.5 0.578125 L 15.9375 -12.75 L 17.34375 -11.125 L 10.4375 -5.15625 L 16.140625 1.453125 L 23.046875 -4.515625 L 24.453125 -2.875 Z M 9.015625 10.453125 "/></g></g></g><g fill="#ffffff" fill-opacity="1"><g transform="translate(60.666603, 279.347457)"><g><path d="M 116.125 -2.734375 C 116.726562 -2.003906 116.847656 -1.363281 116.484375 -0.8125 C 116.117188 -0.269531 115.453125 0 114.484375 0 L 83.1875 0 C 82.457031 0 81.910156 -0.179688 81.546875 -0.546875 L 39.140625 -52.96875 C 38.523438 -52.363281 37.15625 -50.875 35.03125 -48.5 C 32.914062 -46.132812 30.367188 -43.285156 27.390625 -39.953125 C 24.421875 -36.617188 21.359375 -33.160156 18.203125 -29.578125 C 15.046875 -25.992188 12.070312 -22.625 9.28125 -19.46875 C 6.488281 -16.320312 4.242188 -13.773438 2.546875 -11.828125 C 0.847656 -9.890625 0 -8.921875 0 -8.921875 L 0 -143.96875 C 0 -145.0625 0.664062 -145.609375 2 -145.609375 L 26.03125 -145.609375 C 27.238281 -145.609375 27.84375 -145.0625 27.84375 -143.96875 L 27.84375 -77.71875 L 82.640625 -145.0625 C 83.003906 -145.425781 83.546875 -145.609375 84.265625 -145.609375 L 113.9375 -145.609375 C 114.90625 -145.609375 115.570312 -145.304688 115.9375 -144.703125 C 116.300781 -144.097656 116.179688 -143.488281 115.578125 -142.875 L 57.703125 -71.53125 Z M 116.125 -2.734375 "/></g></g></g><g fill="#ffffff" fill-opacity="1"><g transform="translate(170.249271, 279.347457)"><g><path d="M 27.84375 -82.453125 L 0 -82.453125 L 0 -143.96875 C 0 -145.0625 0.664062 -145.609375 2 -145.609375 L 25.84375 -145.609375 C 27.175781 -145.609375 27.84375 -145.0625 27.84375 -143.96875 Z M 108.84375 -145.609375 C 110.175781 -145.609375 110.84375 -145.0625 110.84375 -143.96875 L 110.84375 -1.640625 C 110.84375 -0.546875 110.175781 0 108.84375 0 L 85 0 C 83.664062 0 83 -0.546875 83 -1.640625 L 83 -27.296875 L 27.84375 -27.296875 L 27.84375 -1.640625 C 27.84375 -0.546875 27.175781 0 25.84375 0 L 2 0 C 0.664062 0 0 -0.546875 0 -1.640625 L 0 -54.609375 L 27.84375 -54.609375 L 27.84375 -54.421875 L 83 -54.421875 L 83 -143.96875 C 83 -145.0625 83.664062 -145.609375 85 -145.609375 Z M 108.84375 -145.609375 "/></g></g></g></svg>